<svg width="655" height="238" viewBox="0 0 655 238" fill="none" xmlns="http://www.w3.org/2000/svg">
<g clip-path="url(#clip0)">
<rect width="655" height="238" rx="5" fill="url(#paint0_radial)"/>
<mask id="mask0" mask-type="alpha" maskUnits="userSpaceOnUse" x="0" y="0" width="655" height="238">
<rect width="655" height="238" fill="#C4C4C4"/>
</mask>
<g mask="url(#mask0)">
</g>
<path d="M406.731 42.6605V106.209H301.159L281.655 126.685L283.882 106.209H274.392V42.6605H406.731Z" fill="#6C63FF"/>
<path d="M470.62 46.4308V87.1754H538.308L550.813 100.304L549.385 87.1754H555.469V46.4308H470.62Z" fill="#F0F0F0"/>
<path d="M191.268 231.99H197.375L200.281 211.379H191.268L191.268 231.99Z" fill="#FFB7B7"/>
<path d="M189.711 230.246L201.737 230.245H201.738C203.77 230.246 205.72 230.952 207.157 232.21C208.594 233.467 209.402 235.173 209.402 236.952V237.17L189.711 237.17L189.711 230.246Z" fill="#2F2E41"/>
<path d="M264.637 231.815L270.567 230.538L267.76 209.917L259.008 211.801L264.637 231.815Z" fill="#FFB7B7"/>
<path d="M262.648 230.447L274.327 227.932L274.327 227.932C276.301 227.507 278.387 227.785 280.126 228.706C281.865 229.627 283.115 231.114 283.601 232.841L283.66 233.053L264.54 237.17L262.648 230.447Z" fill="#2F2E41"/>
<path d="M187.513 227.076L188.782 221.397C188.782 221.397 191.117 199.468 207.875 177.582L213.33 153.808C213.33 153.808 211.71 135.812 227.347 126.071L232.167 123.166L249.068 124.013L252.972 142.713L260.837 186.96C260.837 186.96 262.867 187.126 263.628 192.243C265.175 194.391 266.09 196.842 266.292 199.375C266.292 199.375 270.317 209.092 271.396 216.245L271.269 223.246L262.769 227.208L245.054 183.37L232.383 158.862C232.383 158.862 226.285 176.129 216.944 190.922C216.944 190.922 204.15 215.153 201.594 220.076L198.803 228.133L187.513 227.076Z" fill="#2F2E41"/>
<path d="M244.023 85.537C250.695 85.537 256.104 80.8044 256.104 74.9664C256.104 69.1284 250.695 64.3958 244.023 64.3958C237.351 64.3958 231.943 69.1284 231.943 74.9664C231.943 80.8044 237.351 85.537 244.023 85.537Z" fill="#FFB7B7"/>
<path d="M244.023 85.537C250.695 85.537 256.104 80.8044 256.104 74.9664C256.104 69.1284 250.695 64.3958 244.023 64.3958C237.351 64.3958 231.943 69.1284 231.943 74.9664C231.943 80.8044 237.351 85.537 244.023 85.537Z" fill="#FFB8B8"/>
<path d="M227.382 126.184L231.37 117.468C228.552 109.482 228.725 100.917 231.863 93.0237L232.626 92.4739C239.273 87.6841 245.106 88.5561 250.52 94.4152C251.392 95.3677 252.412 96.209 253.55 96.9145C255.937 98.3803 259.725 106.344 254.724 111.012L250.722 131.436C251.144 142.712 241.793 138.466 227.382 126.184Z" fill="#3F3D56"/>
<path d="M284.563 114.329C284.047 113.988 283.453 113.749 282.82 113.631C282.188 113.513 281.534 113.517 280.903 113.644C280.273 113.771 279.683 114.017 279.173 114.366C278.663 114.714 278.247 115.156 277.954 115.66L267.877 114.973L265.907 120.23L280.153 121.024C281.153 121.399 282.277 121.44 283.309 121.139C284.342 120.838 285.213 120.216 285.757 119.391C286.3 118.565 286.479 117.594 286.259 116.661C286.039 115.728 285.436 114.899 284.563 114.329H284.563Z" fill="#FFB7B7"/>
<path d="M274.916 122.856L246.202 118.165L236.864 104.464C236.263 103.008 236.349 101.404 237.101 100.003C237.853 98.6023 239.21 97.5204 240.874 96.9953C242.538 96.4703 244.372 96.545 245.973 97.2032C247.573 97.8613 248.81 99.0489 249.41 100.505L253.79 111.104L276.498 114.393L274.916 122.856Z" fill="#CCCCCC"/>
<path d="M222.49 72.6512C228.89 72.6512 234.079 68.1108 234.079 62.5099C234.079 56.9091 228.89 52.3687 222.49 52.3687C216.089 52.3687 210.9 56.9091 210.9 62.5099C210.9 68.1108 216.089 72.6512 222.49 72.6512Z" fill="#2F2E41"/>
<path d="M212.493 70.9075C213.993 71.8562 215.731 72.4768 217.561 72.7173C219.392 72.9578 221.261 72.8112 223.013 72.2898C224.766 71.7685 226.35 70.8875 227.633 69.7205C228.917 68.5536 229.862 67.1347 230.39 65.5826C230.191 66.9735 229.663 68.3132 228.842 69.5168C228.02 70.7205 226.923 71.7621 225.618 72.5758C224.313 73.3895 222.83 73.9577 221.262 74.2445C219.693 74.5313 218.074 74.5305 216.506 74.242C214.938 73.9536 213.456 73.3839 212.152 72.5688C210.849 71.7537 209.752 70.711 208.932 69.5065C208.113 68.302 207.587 66.9618 207.389 65.5706C207.191 64.1794 207.325 62.7674 207.782 61.4237C207.522 63.2289 207.823 65.062 208.652 66.7307C209.48 68.3994 210.807 69.8421 212.493 70.9075Z" fill="#2F2E41"/>
<path d="M258.231 70.9188C256.208 67.7493 255.434 66.4253 252.825 64.4979C250.518 62.7934 247.68 62.2928 245.391 63.9079C242.684 62.8843 239.671 62.6522 236.801 63.2461C233.931 63.84 231.356 65.2282 229.459 67.2046C227.562 69.1809 226.444 71.6399 226.272 74.2164C226.099 76.7928 226.881 79.3492 228.501 81.5059C230.121 83.6625 232.493 85.3043 235.265 86.1875C238.036 87.0706 241.059 87.1479 243.885 86.408C246.711 85.668 249.188 84.1502 250.949 82.0801C252.711 80.0099 253.662 77.4979 253.662 74.917C253.66 74.4638 253.628 74.011 253.568 73.5609C255.558 73.3164 256.241 71.1633 258.231 70.9188Z" fill="#2F2E41"/>
<path d="M614.516 146.788C614.554 146.089 614.766 145.405 615.139 144.785C615.511 144.165 616.035 143.624 616.672 143.201C617.309 142.777 618.045 142.481 618.827 142.333C619.609 142.185 620.419 142.189 621.199 142.344L628.439 133.417L635.712 135.943L625.286 148.425C624.901 149.554 624.055 150.521 622.909 151.142C621.764 151.763 620.398 151.994 619.07 151.792C617.743 151.59 616.546 150.97 615.706 150.047C614.867 149.125 614.443 147.965 614.516 146.788Z" fill="#A0616A"/>
<path d="M622.458 139.111L635.328 120.168L630.085 107.932L637.226 91.2657L637.49 91.3646C637.663 91.4294 641.721 93.014 642.322 98.6888L650.529 121.26L628.625 146.127L622.458 139.111Z" fill="#3F3D56"/>
<path d="M552.552 69.4726C553.346 69.5597 554.108 69.7982 554.786 70.1711C555.463 70.544 556.039 71.0423 556.472 71.631C556.906 72.2197 557.187 72.8844 557.295 73.5782C557.403 74.2721 557.336 74.9783 557.098 75.647L566.71 82.6529L563.27 88.8025L549.854 78.742C548.597 78.3184 547.561 77.506 546.942 76.4585C546.323 75.4111 546.165 74.2015 546.498 73.0589C546.83 71.9164 547.63 70.9202 548.746 70.2592C549.862 69.5982 551.216 69.3184 552.552 69.4726Z" fill="#A0616A"/>
<path d="M560.685 76.9944L581.273 89.688L595.621 86.0591L614.058 93.5786L613.925 93.8007C613.838 93.9464 611.719 97.3643 605.207 97.4503L578.854 102.866L552.215 81.8328L560.685 76.9944Z" fill="#3F3D56"/>
<path d="M598.358 231.355H591.2L587.795 207.198L598.359 207.198L598.358 231.355Z" fill="#A0616A"/>
<path d="M586.088 229.565H599.891V237.17H577.396C577.396 236.171 577.621 235.182 578.058 234.26C578.495 233.337 579.135 232.499 579.942 231.792C580.749 231.086 581.707 230.526 582.762 230.144C583.816 229.762 584.946 229.565 586.088 229.565Z" fill="#2F2E41"/>
<path d="M626.964 231.355H619.807L616.402 207.198L626.966 207.198L626.964 231.355Z" fill="#A0616A"/>
<path d="M614.694 229.565H628.498V237.17H606.003C606.003 236.171 606.228 235.182 606.665 234.26C607.101 233.337 607.742 232.499 608.549 231.792C609.356 231.086 610.314 230.526 611.368 230.144C612.423 229.762 613.553 229.565 614.694 229.565Z" fill="#2F2E41"/>
<path d="M629.509 143.18L628.926 178.939L628.342 225.937L615.498 224.915L609.076 160.038L600.903 224.915H587.643L586.307 159.527L590.978 145.223L629.509 143.18Z" fill="#2F2E41"/>
<path d="M589.698 145.442L587.741 145.367L596.83 101.558L593.109 88.3162C592.915 87.6273 593.017 86.9002 593.396 86.2728C593.774 85.6453 594.402 85.1611 595.161 84.9119L601.857 82.715L604.222 77.0229L622.885 78.7826L623.344 83.2312C625.366 83.7987 642.02 88.6519 640.871 94.1818C639.737 99.6399 633.04 116.812 632.7 117.682L631.527 142.309L631.383 142.372C631.209 142.448 618.346 147.983 604.371 147.982C599.33 148.056 594.328 147.19 589.698 145.442Z" fill="#3F3D56"/>
<path d="M612.822 74.2061C620.243 74.2061 626.259 68.9419 626.259 62.4481C626.259 55.9543 620.243 50.6901 612.822 50.6901C605.401 50.6901 599.385 55.9543 599.385 62.4481C599.385 68.9419 605.401 74.2061 612.822 74.2061Z" fill="#A0616A"/>
<path d="M623.706 73.8301C621.145 76.217 616.39 74.9357 616.056 71.6748C616.03 71.4216 616.032 71.1669 616.062 70.914C616.234 69.4696 617.187 68.1582 616.959 66.6331C616.907 66.2535 616.746 65.8918 616.49 65.5822C614.449 63.1911 609.659 66.6517 607.733 64.4871C606.552 63.1598 607.94 61.0701 607.034 59.5866C605.838 57.6287 602.295 58.5945 600.073 57.5223C597.601 56.3292 597.749 53.0107 599.376 50.9922C601.361 48.5305 604.84 47.217 608.276 47.0277C611.712 46.8384 615.124 47.6511 618.332 48.745C621.976 49.9878 625.59 51.7054 627.833 54.5096C630.561 57.9198 630.823 62.5045 629.459 66.492C628.629 68.9177 625.797 71.8809 623.706 73.8301Z" fill="#2F2E41"/>
<path d="M478.119 228.106L480.115 223.613L461.26 214.737L458.313 221.369L478.119 228.106Z" fill="#FFB8B8"/>
<path d="M488.814 216.385C487.968 216.097 487.065 215.957 486.157 215.975C485.249 215.992 484.354 216.165 483.523 216.486C482.692 216.806 481.941 217.266 481.313 217.84C480.686 218.414 480.193 219.091 479.865 219.832L478.518 222.861L476.442 227.536L475.935 228.683L482.588 230.947L489.023 216.458L488.814 216.385Z" fill="#2F2E41"/>
<path d="M476.443 219.459L475.575 221.474L473.408 226.502L473.356 226.628C467.836 227.249 461.784 226.032 456.186 224.142C453.947 223.386 451.753 222.529 449.614 221.576C446.449 220.176 443.614 218.699 441.353 217.436C437.949 215.524 435.844 214.088 435.844 214.088C435.844 214.088 435.288 214.528 434.281 215.282C432.932 216.292 430.777 217.869 428.047 219.725C427.006 220.438 425.888 221.184 424.693 221.963C415.884 227.679 404.581 212.425 404.581 212.425C404.581 212.425 407.76 210.654 408.59 210.31C411.265 209.203 417.547 206.59 422.968 204.269C425.76 203.071 428.321 201.948 430.04 201.15C436.127 198.314 443.694 203.68 443.694 203.68L476.443 219.459Z" fill="#2F2E41"/>
<path opacity="0.14" d="M476.443 219.459L475.575 221.474L473.408 226.502L473.356 226.628C467.836 227.249 461.784 226.032 456.186 224.142C453.947 223.386 451.753 222.529 449.614 221.576C446.449 220.176 443.614 218.699 441.353 217.436C437.949 215.524 435.844 214.088 435.844 214.088C435.844 214.088 435.288 214.528 434.281 215.282C432.932 216.292 430.777 217.869 428.047 219.725C427.006 220.438 425.888 221.184 424.693 221.963C415.884 227.679 404.581 212.425 404.581 212.425C404.581 212.425 407.76 210.654 408.59 210.31C411.265 209.203 417.547 206.59 422.968 204.269C425.76 203.071 428.321 201.948 430.04 201.15C436.127 198.314 443.694 203.68 443.694 203.68L476.443 219.459Z" fill="black"/>
<path d="M388.339 177.169H362.276C361.74 177.168 361.226 176.982 360.847 176.65C360.468 176.318 360.254 175.869 360.254 175.4V165.569C360.254 162.076 361.84 158.725 364.663 156.255C367.486 153.785 371.315 152.397 375.308 152.397C379.3 152.397 383.129 153.785 385.952 156.255C388.775 158.725 390.361 162.076 390.361 165.569V175.4C390.361 175.869 390.148 176.318 389.768 176.65C389.389 176.982 388.875 177.168 388.339 177.169Z" fill="#2F2E41"/>
<path d="M413.125 189.517C412.519 189.61 411.943 189.818 411.438 190.127C410.933 190.436 410.512 190.839 410.204 191.305C409.896 191.772 409.709 192.293 409.656 192.83C409.603 193.367 409.685 193.907 409.896 194.414L402.809 200.118L405.72 204.732L415.599 196.554C416.548 196.186 417.309 195.528 417.739 194.702C418.17 193.876 418.239 192.941 417.934 192.074C417.629 191.206 416.971 190.467 416.085 189.996C415.199 189.524 414.146 189.354 413.125 189.517V189.517Z" fill="#FFB8B8"/>
<path d="M391.801 215.449C391.48 215.449 391.16 215.437 390.839 215.413C388.927 215.274 387.087 214.711 385.491 213.779C383.896 212.847 382.597 211.575 381.718 210.083L370.363 190.96C369.619 189.707 369.456 188.251 369.907 186.896C370.359 185.54 371.39 184.389 372.787 183.682C374.183 182.974 375.838 182.765 377.406 183.098C378.974 183.431 380.335 184.28 381.206 185.469L391.682 206.035L405.935 195.902L414.188 198.713L400.251 212.177C399.179 213.206 397.874 214.029 396.419 214.592C394.965 215.155 393.392 215.447 391.801 215.449Z" fill="#6C63FF"/>
<path d="M476.526 234.426L478.911 230.08L460.89 219.963L457.371 226.377L476.526 234.426Z" fill="#FFB8B8"/>
<path d="M488.219 223.458C487.401 223.114 486.513 222.914 485.606 222.87C484.7 222.826 483.792 222.939 482.935 223.203C482.078 223.466 481.289 223.874 480.613 224.405C479.937 224.935 479.387 225.577 478.994 226.293L477.385 229.223L474.905 233.745L474.298 234.853L480.733 237.559L488.422 223.545L488.219 223.458Z" fill="#2F2E41"/>
<path d="M475.615 225.692L474.572 227.642L471.97 232.51L471.907 232.632C466.349 232.88 460.421 231.259 455.006 228.999C452.84 228.094 450.728 227.093 448.679 225.998C445.646 224.39 442.95 222.727 440.806 221.315C437.58 219.18 435.607 217.607 435.607 217.607C435.607 217.607 435.014 218.008 433.944 218.693C432.511 219.609 430.224 221.036 427.339 222.703C426.238 223.344 425.057 224.013 423.798 224.709C414.514 229.816 401.311 236.037 390.081 237.35C370.358 239.658 375 216.628 375 216.628L390.697 209.495L397.361 210.679L404.78 211.992L407.409 212.46C407.409 212.46 407.908 212.295 408.766 212.008C411.53 211.084 418.023 208.902 423.631 206.951C426.521 205.945 429.172 204.997 430.956 204.317C437.274 201.898 444.347 207.757 444.347 207.757L475.615 225.692Z" fill="#2F2E41"/>
<path d="M346.277 237.9C346.878 237.78 347.441 237.545 347.926 237.214C348.412 236.882 348.809 236.462 349.089 235.982C349.369 235.501 349.525 234.973 349.546 234.435C349.568 233.896 349.454 233.36 349.213 232.864L355.953 226.847L352.774 222.371L343.391 230.984C342.466 231.394 341.744 232.087 341.363 232.931C340.982 233.775 340.968 234.712 341.324 235.564C341.68 236.417 342.38 237.125 343.293 237.556C344.206 237.986 345.268 238.109 346.277 237.9H346.277Z" fill="#FFB8B8"/>
<path d="M378.998 177.608C384.802 177.608 389.507 173.491 389.507 168.412C389.507 163.334 384.802 159.217 378.998 159.217C373.194 159.217 368.489 163.334 368.489 168.412C368.489 173.491 373.194 177.608 378.998 177.608Z" fill="#FFB8B8"/>
<path d="M365.326 193.938L374.48 216.649L374.425 216.728C373.152 218.57 372.736 220.056 373.222 221.024C373.35 221.271 373.538 221.49 373.772 221.667C374.006 221.843 374.281 221.974 374.578 222.048L396.242 208.798L395.483 203.488L395.525 203.429C397.619 200.497 398.297 197.842 397.541 195.538C396.856 193.673 395.376 192.112 393.409 191.177L393.333 191.125L382.528 179.618L368.085 181.863L365.326 193.938Z" fill="#6C63FF"/>
<path d="M351.404 233.8L345.271 227.196L360.055 205.84L366.948 187.197L367.162 187.258L366.948 187.197C367.325 186.179 367.946 185.243 368.771 184.452C369.596 183.662 370.605 183.035 371.73 182.615C372.855 182.195 374.07 181.99 375.293 182.015C376.516 182.041 377.719 182.295 378.82 182.761C379.921 183.228 380.895 183.895 381.677 184.719C382.458 185.542 383.029 186.503 383.35 187.536C383.672 188.568 383.736 189.65 383.539 190.706C383.343 191.763 382.89 192.77 382.211 193.66L369.556 210.25L351.404 233.8Z" fill="#6C63FF"/>
<path d="M393.923 166.552H377.986L377.822 164.55L377.005 166.552H374.551L374.227 162.584L372.608 166.552H367.859V166.356C367.863 163.593 369.118 160.945 371.351 158.991C373.583 157.038 376.61 155.939 379.768 155.936H382.015C385.172 155.939 388.199 157.038 390.431 158.991C392.664 160.945 393.919 163.593 393.923 166.356V166.552Z" fill="#2F2E41"/>
<path d="M377.856 179.004C377.736 179.004 377.616 178.995 377.498 178.976L365.828 177.175V160.298H378.674L378.356 160.623C373.931 165.138 377.265 172.461 379.646 176.424C379.821 176.714 379.9 177.042 379.872 177.369C379.844 177.696 379.711 178.01 379.488 178.274C379.301 178.5 379.056 178.684 378.772 178.811C378.488 178.938 378.174 179.004 377.856 179.004Z" fill="#2F2E41"/>
<path d="M552.209 148.769V172.544H431.84L414.458 190.792L416.443 172.544H407.986V148.769H552.209Z" fill="#F0F0F0"/>
<path d="M458.029 164.928C460.749 164.928 462.954 162.998 462.954 160.619C462.954 158.239 460.749 156.31 458.029 156.31C455.309 156.31 453.104 158.239 453.104 160.619C453.104 162.998 455.309 164.928 458.029 164.928Z" fill="white"/>
<path d="M441.409 164.928C444.129 164.928 446.333 162.998 446.333 160.619C446.333 158.239 444.129 156.31 441.409 156.31C438.689 156.31 436.485 158.239 436.485 160.619C436.485 162.998 438.689 164.928 441.409 164.928Z" fill="white"/>
<path d="M424.789 164.928C427.509 164.928 429.713 162.998 429.713 160.619C429.713 158.239 427.509 156.31 424.789 156.31C422.069 156.31 419.865 158.239 419.865 160.619C419.865 162.998 422.069 164.928 424.789 164.928Z" fill="white"/>
<path d="M694.384 237.641H133.616C133.452 237.641 133.296 237.585 133.18 237.484C133.065 237.383 133 237.246 133 237.103C133 236.96 133.065 236.823 133.18 236.722C133.296 236.621 133.452 236.564 133.616 236.564H694.384C694.548 236.564 694.704 236.621 694.82 236.722C694.935 236.823 695 236.96 695 237.103C695 237.246 694.935 237.383 694.82 237.484C694.704 237.585 694.548 237.641 694.384 237.641Z" fill="#CACACA"/>
</g>
<defs>
<radialGradient id="paint0_radial" cx="0" cy="0" r="1" gradientUnits="userSpaceOnUse" gradientTransform="translate(728 -51) rotate(158.971) scale(936.361 2576.96)">
<stop offset="0.015625" stop-color="white" stop-opacity="0"/>
<stop offset="0.0166521" stop-color="#9B97E7" stop-opacity="0.520833"/>
<stop offset="1" stop-color="#6C63FF"/>
</radialGradient>
<clipPath id="clip0">
<rect width="655" height="238" rx="5" fill="white"/>
</clipPath>
</defs>
</svg>
